<?xml version="1.0" standalone="no"?>
<!DOCTYPE svg PUBLIC "-//W3C//DTD SVG 20010904//EN"
 "http://www.w3.org/TR/2001/REC-SVG-20010904/DTD/svg10.dtd">
<svg version="1.0" xmlns="http://www.w3.org/2000/svg"
 width="500.000000pt" height="500.000000pt" viewBox="0 0 500.000000 500.000000"
 preserveAspectRatio="xMidYMid meet">
<metadata>
Created by potrace 1.14, written by Peter Selinger 2001-2017
</metadata>
<g transform="translate(0.000000,500.000000) scale(0.100000,-0.100000)"
fill="#000000" stroke="none">
<path d="M0 2500 l0 -2500 403 1 402 1 -85 21 c-105 27 -184 71 -222 123 -23
32 -30 55 -35 110 -5 66 -7 69 -32 69 -117 2 -236 38 -289 88 -13 12 -36 42
-50 67 -26 43 -26 48 -29 245 -1 117 2 213 8 232 14 44 99 118 164 142 217 81
513 28 597 -107 24 -39 27 -64 28 -268 l0 -101 68 -6 c144 -12 276 -80 313
-160 14 -32 19 -65 19 -143 0 -55 -3 -104 -7 -108 -5 -4 -9 -12 -9 -17 -1 -5
-2 -14 -3 -19 -2 -19 -74 -81 -120 -104 -54 -27 -101 -43 -155 -51 -22 -3 -42
-8 -45 -10 -2 -3 529 -5 1180 -4 1071 1 1177 2 1115 15 -115 25 -208 81 -242
146 -8 15 -14 54 -14 88 0 55 -2 60 -22 61 -54 1 -118 11 -182 30 -57 17 -78
30 -121 72 -67 68 -74 98 -74 321 0 195 6 223 55 270 65 62 223 116 340 116
111 0 252 -46 323 -106 55 -46 60 -66 62 -242 l1 -160 67 -7 c132 -14 253 -71
301 -141 22 -33 25 -50 28 -146 3 -95 1 -114 -17 -149 -40 -76 -126 -129 -247
-153 -61 -13 22 -14 719 -15 l787 -1 0 2500 0 2500 -2490 0 -2490 0 0 -2500z
m657 2024 c97 -73 42 -234 -80 -234 -127 0 -184 148 -89 233 46 42 114 42 169
1z m3423 7 c14 -9 33 -33 42 -52 l18 -34 0 34 c0 43 24 71 61 71 45 0 59 -31
59 -132 0 -75 -3 -91 -20 -108 -42 -42 -99 -9 -101 58 -1 21 -3 29 -6 17 -14
-54 -71 -95 -133 -95 -102 0 -164 116 -107 201 44 67 125 84 187 40z m-3238
-17 c30 -30 36 -33 31 -15 -12 45 50 69 89 34 25 -23 27 -197 1 -225 -25 -28
-60 -22 -99 17 -41 41 -44 42 -37 14 12 -45 -63 -67 -91 -27 -23 33 -22 194 1
220 26 29 63 22 105 -18z m343 20 c24 -24 16 -75 -15 -92 l-25 -14 28 7 c26 5
28 4 25 -22 -2 -17 -13 -33 -28 -41 l-25 -14 28 6 c23 6 27 3 27 -16 0 -43
-27 -58 -106 -58 -96 0 -104 10 -104 134 0 117 7 126 106 126 54 0 77 -4 89
-16z m331 -18 c51 -51 39 -127 -26 -161 -37 -19 -48 -19 -53 3 -3 12 -5 10 -6
-7 -3 -57 -74 -83 -105 -39 -12 16 -16 47 -16 112 0 117 8 126 103 126 65 0
71 -2 103 -34z m150 9 c24 -37 17 -201 -10 -221 -27 -19 -52 -18 -76 6 -17 17
-20 33 -20 112 0 71 4 95 17 110 24 27 69 23 89 -7z m218 9 c29 -28 15 -82
-24 -98 -8 -3 -2 -4 13 -1 26 5 28 4 25 -22 -2 -17 -13 -33 -28 -41 l-25 -14
28 6 c23 6 27 3 27 -16 0 -42 -27 -58 -102 -58 -98 0 -108 12 -108 132 0 120
7 128 106 128 53 0 77 -4 88 -16z m250 0 c21 -20 20 -68 -1 -89 -11 -12 -28
-16 -55 -13 -25 2 -38 -1 -38 -9 0 -8 14 -11 39 -10 48 2 71 -16 71 -56 0 -48
-24 -67 -88 -67 -66 0 -113 25 -136 74 -31 65 -12 130 47 166 41 25 138 28
161 4z m231 0 c24 -24 16 -75 -15 -92 l-25 -14 28 7 c26 5 28 4 25 -22 -2 -17
-13 -33 -28 -41 l-25 -14 28 6 c23 6 27 3 27 -16 0 -42 -27 -58 -102 -58 -98
0 -108 12 -108 132 0 120 7 128 106 128 54 0 77 -4 89 -16z m237 -18 l31 -35
32 35 c35 37 60 42 91 20 17 -13 19 -27 19 -116 0 -89 -2 -103 -19 -116 -29
-20 -63 -17 -80 8 -14 20 -14 24 2 42 17 21 17 21 -4 4 -11 -10 -29 -18 -39
-18 -10 0 -27 8 -38 18 -19 17 -19 16 -6 -6 28 -45 -40 -84 -82 -46 -16 15
-19 31 -19 115 0 90 2 99 22 113 34 24 57 19 90 -18z m382 18 c28 -28 13 -93
-22 -95 -11 0 -12 -2 -4 -6 7 -3 19 1 27 7 13 11 15 8 15 -18 0 -20 -8 -36
-22 -47 l-23 -17 23 7 c18 5 22 2 22 -16 0 -43 -27 -59 -102 -59 -98 0 -108
12 -108 132 0 120 7 128 106 128 53 0 77 -4 88 -16z m241 0 c22 -22 16 -74
-10 -88 -28 -16 -33 -24 -29 -57 4 -32 -11 -80 -29 -91 -20 -13 -49 -9 -69 9
-13 12 -18 30 -18 69 0 45 -3 55 -22 65 -42 22 -50 59 -21 91 22 25 173 27
198 2z m238 -84 c42 -83 47 -99 38 -123 -21 -54 -91 -43 -117 19 -16 39 -23
44 -17 12 5 -28 -29 -68 -59 -68 -28 0 -58 28 -58 53 0 24 76 188 93 199 7 5
26 7 42 6 27 -3 35 -12 78 -98z m371 84 c9 -8 16 -28 16 -44 0 -40 -24 -60
-71 -60 -21 0 -39 -4 -39 -9 0 -6 18 -9 39 -8 21 0 46 -5 55 -12 24 -20 21
-77 -6 -95 -30 -21 -106 -20 -147 2 -37 20 -71 73 -71 110 0 40 28 91 62 112
42 25 139 28 162 4z m558 -20 c32 -32 36 -34 31 -14 -11 42 57 68 91 34 23
-23 23 -200 -1 -226 -25 -27 -55 -22 -104 19 -24 21 -38 30 -31 21 11 -14 10
-20 -7 -37 -25 -25 -49 -27 -79 -5 -20 14 -22 23 -22 111 0 76 4 100 17 115
26 29 63 22 105 -18z m-3029 -668 c67 -29 115 -113 102 -179 -4 -17 -18 -50
-32 -71 l-26 -40 44 -40 c24 -23 89 -82 143 -133 l99 -92 -25 -58 c-30 -67
-54 -136 -63 -176 l-6 -29 -52 48 c-29 26 -86 79 -127 119 -41 39 -101 95
-133 125 l-57 53 -23 -20 c-36 -33 -63 -43 -115 -43 -117 0 -190 113 -147 226
23 60 77 97 146 98 l49 1 0 48 c0 54 18 104 46 129 53 47 117 60 177 34z
m2441 -26 c44 -31 66 -77 66 -139 l0 -48 51 -6 c103 -12 166 -84 156 -180 -12
-130 -168 -194 -267 -110 l-31 26 -27 -25 c-15 -14 -94 -87 -177 -163 l-149
-138 -21 64 c-12 35 -34 93 -50 128 l-29 63 50 47 c27 25 89 84 138 130 64 59
87 87 80 96 -43 58 -48 71 -48 119 0 64 30 118 82 146 50 27 128 22 176 -10z
m-1074 -141 c172 -43 352 -162 464 -307 38 -50 86 -132 86 -147 0 -3 -346 -5
-770 -5 -646 0 -770 2 -770 14 0 7 22 47 48 87 139 211 351 346 597 378 93 13
252 3 345 -20z m1096 -790 c19 -15 18 -54 -2 -73 -14 -14 -145 -16 -1297 -16
-1145 0 -1285 2 -1305 16 -25 17 -28 41 -8 66 12 17 88 18 1287 20 701 2 1282
2 1293 1 10 -1 24 -7 32 -14z m-456 -160 c0 -34 -58 -198 -96 -268 -108 -206
-300 -362 -509 -415 -160 -41 -367 -41 -520 -1 -218 57 -410 222 -509 437 -34
73 -69 175 -81 236 l-7 32 861 0 861 0 0 -21z m-1215 -707 c39 -14 71 -27 73
-28 2 -1 -2 -36 -9 -78 -10 -60 -16 -76 -30 -76 -24 0 -177 79 -182 95 -3 6 6
38 21 69 19 44 29 55 41 50 9 -4 48 -18 86 -32z m822 -38 c13 -32 21 -64 19
-70 -5 -13 -79 -49 -153 -75 l-53 -18 -5 22 c-16 73 -24 142 -18 145 124 45
170 60 178 58 5 -1 20 -29 32 -62z m-1023 -33 c-14 -50 -28 -131 -33 -202 l-9
-118 -83 -79 c-46 -43 -97 -90 -113 -103 l-28 -25 26 -38 c19 -29 26 -51 26
-88 0 -101 -53 -159 -152 -166 -50 -4 -64 -1 -98 22 -51 33 -73 77 -72 142 l0
52 -54 4 c-93 8 -154 72 -154 163 0 144 163 216 274 120 l29 -25 76 70 c42 38
146 134 231 213 85 80 156 144 157 143 1 -1 -9 -39 -23 -85z m1336 -162 c218
-203 196 -187 223 -161 107 101 277 29 277 -118 0 -92 -57 -151 -152 -158
l-58 -4 0 -57 c0 -121 -106 -198 -215 -156 -105 40 -143 166 -76 256 l21 28
-71 68 c-39 37 -88 83 -110 102 -33 29 -39 40 -39 75 0 64 -27 225 -49 296
-12 36 -21 69 -21 75 0 5 26 -15 58 -46 31 -30 127 -120 212 -200z m-875 173
l70 -7 3 -83 c2 -67 0 -83 -13 -88 -18 -7 -206 23 -217 34 -7 7 6 113 18 150
2 9 14 11 36 7 18 -3 65 -9 103 -13z m314 -71 c6 -41 8 -78 4 -82 -8 -7 -145
-29 -184 -29 -17 0 -19 8 -19 90 l0 90 48 1 c26 0 65 4 87 8 22 4 43 5 46 2 3
-3 11 -39 18 -80z m-632 -61 c102 -50 100 -46 87 -144 -5 -34 -11 -46 -24 -46
-9 0 -56 24 -104 52 l-88 53 7 54 c8 61 14 83 24 79 3 -2 48 -23 98 -48z m924
18 c0 -7 4 -34 8 -61 5 -31 4 -52 -3 -62 -6 -7 -53 -35 -105 -61 -73 -37 -95
-44 -102 -33 -12 20 -23 143 -13 146 5 2 52 21 104 42 110 45 110 45 111 29z
m-728 -89 c20 -5 72 -13 115 -17 l77 -7 3 -84 3 -84 -78 6 c-105 7 -189 35
-187 62 5 67 16 135 22 135 4 0 24 -5 45 -11z m465 -71 c6 -41 7 -77 2 -82
-14 -14 -121 -36 -178 -36 l-53 0 3 83 3 82 85 11 c139 18 126 24 138 -58z
m-740 -33 c65 -43 202 -97 296 -116 215 -44 447 -13 650 87 39 19 71 34 73 34
9 0 1 -104 -12 -155 -61 -238 -237 -359 -520 -358 -277 0 -454 121 -518 354
-19 65 -28 179 -16 179 5 0 26 -11 47 -25z m2302 -530 c111 -23 205 -78 237
-138 15 -26 18 -60 18 -192 l0 -160 65 -7 c165 -18 286 -83 319 -171 12 -31
15 -185 5 -235 -9 -43 -67 -108 -123 -136 -72 -37 -223 -70 -284 -63 -157 18
-260 58 -317 124 -33 38 -53 99 -48 152 l3 36 -75 6 c-90 7 -121 15 -180 44
-59 30 -98 70 -123 125 -18 39 -20 66 -19 247 0 176 2 207 17 230 80 121 299
181 505 138z m-2459 -19 c108 -23 197 -77 231 -140 14 -25 17 -59 18 -188 l0
-157 58 -6 c134 -15 255 -69 303 -136 20 -29 25 -48 27 -127 7 -165 -25 -226
-143 -282 -118 -55 -237 -69 -358 -41 -189 45 -267 120 -267 259 l0 42 -47 0
c-73 0 -177 26 -222 54 -49 31 -98 95 -110 145 -5 20 -9 117 -10 216 -1 210 4
225 85 287 45 35 131 71 194 81 57 10 179 6 241 -7z"/>
<path d="M560 4420 c0 -5 4 -10 9 -10 6 0 13 5 16 10 3 6 -1 10 -9 10 -9 0
-16 -4 -16 -10z"/>
<path d="M3990 4420 c0 -5 4 -10 9 -10 6 0 13 5 16 10 3 6 -1 10 -9 10 -9 0
-16 -4 -16 -10z"/>
<path d="M1430 4444 c0 -8 5 -12 10 -9 6 3 10 10 10 16 0 5 -4 9 -10 9 -5 0
-10 -7 -10 -16z"/>
<path d="M2014 3438 c-60 -63 -94 -112 -94 -136 0 -32 34 -28 55 6 10 15 40
53 68 85 30 35 47 63 43 72 -9 25 -30 17 -72 -27z"/>
<path d="M2974 3436 c-3 -8 10 -36 30 -61 19 -26 43 -67 52 -91 14 -36 21 -44
38 -42 26 4 24 34 -6 97 -41 84 -100 134 -114 97z"/>
<path d="M2122 3383 c-40 -51 -65 -102 -58 -119 8 -20 44 -17 50 4 3 10 21 42
40 71 52 80 25 116 -32 44z"/>
<path d="M2841 3376 c-9 -10 -9 -20 -2 -33 6 -10 17 -35 26 -56 10 -28 20 -38
32 -35 26 5 27 37 1 88 -26 49 -39 58 -57 36z"/>
<path d="M2230 3338 c-11 -18 -20 -36 -20 -39 0 -13 26 -28 36 -21 18 12 44
56 44 74 0 31 -38 21 -60 -14z"/>
<path d="M2089 2695 c-83 -26 -159 -127 -159 -210 0 -51 33 -128 73 -172 76
-83 160 -103 252 -59 93 44 145 121 145 216 0 65 -19 109 -67 157 -70 70 -159
95 -244 68z"/>
<path d="M2775 2689 c-16 -4 -47 -22 -68 -40 -101 -83 -113 -234 -27 -332 49
-55 105 -79 187 -79 245 -1 309 351 81 446 -40 17 -125 20 -173 5z"/>
<path d="M2445 2215 c-31 -30 -31 -47 -2 -81 46 -53 157 -28 157 36 0 65 -105
96 -155 45z"/>
</g>
</svg>
